<mxfile host="app.diagrams.net" modified="2023-12-09T12:03:43.780Z" agent="Mozilla/5.0 (Windows NT 10.0; Win64; x64) AppleWebKit/537.36 (KHTML, like Gecko) Chrome/119.0.0.0 Safari/537.36" version="22.1.7" etag="KMWRw6ZDhbq4wX_15P3b" type="github">
  <diagram name="PÃ¡gina-1" id="f0RB-YmV5u9hnV7dTxSk">
    <mxGraphModel>
      <root>
        <mxCell id="0" />
        <mxCell id="1" parent="0" />
      </root>
    </mxGraphModel>
  </diagram>
</mxfile>
